<svg width="106" height="57" viewBox="0 0 106 57" fill="none" xmlns="http://www.w3.org/2000/svg">
  <path d="M105.602 28.5L77.1992 0L65 12.1992L69.1016 16.3008L77.1992 8.19922L97.5 28.5L77.1992 48.8008L69.1016 40.6992L65 36.6016L56.8984 28.5L65 20.3984L60.8984 16.3008L52.8008 24.3984L44.6992 16.3008L40.6992 12.1992L28.5 0L0 28.5L28.5 56.8984L40.6992 44.8008L36.6016 40.6992L28.5 48.8008L8.19922 28.5L28.5 8.19922L48.8008 28.5L40.6992 36.6016L44.6992 40.6992L52.8008 32.6016L65 44.8008L77.1992 56.8984" fill="#00CEA6"/>
  <path d="M52.8008 8.19922L60.8984 16.3008L73.0977 28.5L65 36.5977L69.0977 40.6992L81.3008 28.5L69.0977 16.3008L65 12.1992L52.8008 0L40.6992 12.1992L44.6992 16.3008" fill="#024A6C"/>
  <path d="M60.8984 40.6992L52.8008 48.8008L44.6992 40.6992L40.6992 36.5977L32.6016 28.5L40.6992 20.4023L36.6016 16.3008L24.3984 28.5L36.6016 40.6992L40.6992 44.8008L52.8008 56.8984L65 44.8008" fill="#024A6C"/>
</svg>
