<svg width="50" height="50" viewBox="0 0 50 50" fill="none" xmlns="http://www.w3.org/2000/svg">
<path d="M35.4167 18.6396C34.65 18.9729 33.8271 19.2021 32.9625 19.3021C33.8458 18.7812 34.5208 17.9562 34.8417 16.975C33.9999 17.4656 33.0815 17.8107 32.125 17.9958C31.7227 17.5741 31.2386 17.2388 30.7024 17.0102C30.1662 16.7817 29.5891 16.6648 29.0062 16.6667C26.6458 16.6667 24.7333 18.5521 24.7333 20.875C24.7333 21.2042 24.7708 21.525 24.8437 21.8333C23.1507 21.7529 21.493 21.3205 19.9763 20.5636C18.4597 19.8068 17.1175 18.7421 16.0354 17.4375C15.6553 18.0773 15.4552 18.8079 15.4562 19.5521C15.4562 21.0104 16.2125 22.3021 17.3583 23.0542C16.6801 23.0329 16.0164 22.8523 15.4208 22.5271V22.5792C15.4273 23.5572 15.7725 24.5028 16.3977 25.2549C17.023 26.007 17.8896 26.5192 18.85 26.7042C18.2195 26.8709 17.5598 26.8951 16.9187 26.775C17.1982 27.6164 17.7326 28.3499 18.448 28.8737C19.1633 29.3975 20.0239 29.6856 20.9104 29.6979C19.3895 30.8699 17.5222 31.5031 15.6021 31.4979C15.2583 31.4979 14.9187 31.4771 14.5833 31.4396C16.5426 32.6798 18.8145 33.3366 21.1333 33.3333C28.9958 33.3333 33.2937 26.9208 33.2937 21.3583L33.2792 20.8125C34.1173 20.2235 34.8415 19.4873 35.4167 18.6396V18.6396Z" fill="#0AA1DD"/>
<path d="M12.5 8.33333C11.3949 8.33333 10.3351 8.77232 9.55372 9.55372C8.77232 10.3351 8.33333 11.3949 8.33333 12.5V37.5C8.33333 38.6051 8.77232 39.6649 9.55372 40.4463C10.3351 41.2277 11.3949 41.6667 12.5 41.6667H37.5C38.6051 41.6667 39.6649 41.2277 40.4463 40.4463C41.2277 39.6649 41.6667 38.6051 41.6667 37.5V12.5C41.6667 11.3949 41.2277 10.3351 40.4463 9.55372C39.6649 8.77232 38.6051 8.33333 37.5 8.33333H12.5ZM12.5 4.16667H37.5C39.7101 4.16667 41.8297 5.04464 43.3926 6.60744C44.9554 8.17025 45.8333 10.2899 45.8333 12.5V37.5C45.8333 39.7101 44.9554 41.8298 43.3926 43.3926C41.8297 44.9554 39.7101 45.8333 37.5 45.8333H12.5C10.2899 45.8333 8.17024 44.9554 6.60744 43.3926C5.04464 41.8298 4.16666 39.7101 4.16666 37.5V12.5C4.16666 10.2899 5.04464 8.17025 6.60744 6.60744C8.17024 5.04464 10.2899 4.16667 12.5 4.16667V4.16667Z" fill="#0AA1DD"/>
</svg>
