<svg width="50" height="50" viewBox="0 0 50 50" fill="none" xmlns="http://www.w3.org/2000/svg">
<g clip-path="url(#clip0_7_4)">
<path d="M22.5 0C16.5326 0 10.8097 2.37053 6.5901 6.5901C2.37053 10.8097 0 16.5326 0 22.5C0 28.4674 2.37053 34.1903 6.5901 38.4099C10.8097 42.6295 16.5326 45 22.5 45C28.4674 45 34.1903 42.6295 38.4099 38.4099C42.6295 34.1903 45 28.4674 45 22.5C45 16.5326 42.6295 10.8097 38.4099 6.5901C34.1903 2.37053 28.4674 0 22.5 0V0ZM31.15 29.875C31.15 33.55 29.15 38.125 21 41.625C21.75 31.2 14.7 32.4 13 29.125C13.1548 27.7701 13.6482 26.476 14.4346 25.3619C15.221 24.2478 16.2752 23.3496 17.5 22.75C13.6204 22.0846 10.0023 20.3534 7.05 17.75C7.175 18.925 7.7475 20.01 8.65 20.775C6.69478 20.038 5.0054 18.7318 3.8 17.025C4.99194 13.091 7.3758 9.62406 10.6224 7.10288C13.8691 4.58169 17.8184 3.13061 21.925 2.95C19.825 6.4 18.175 13.275 21.925 16.875C18.075 17.5 15.65 12.5 13.525 14.475C10.7 17.125 14.35 20.75 22.075 22.175C30.3 23.65 31.225 26.125 31.15 29.875V29.875ZM34.5 19.875C33.7 17.1 36.05 14.3 38.725 12.025C40.3956 14.433 41.459 17.2094 41.8247 20.1173C42.1903 23.0251 41.8474 25.9783 40.825 28.725C38.9 24 35.4 22.925 34.5 19.8V19.875V19.875Z" fill="black"/>
</g>
<defs>
<clipPath id="clip0_7_4">
<rect width="50" height="50" fill="white"/>
</clipPath>
</defs>
</svg>
