<?xml version="1.0" encoding="UTF-8"?>
<!DOCTYPE svg PUBLIC "-//W3C//DTD SVG 1.1//EN" "http://www.w3.org/Graphics/SVG/1.1/DTD/svg11.dtd">
<!-- Creator: CorelDRAW X6 -->
<svg xmlns="http://www.w3.org/2000/svg" xml:space="preserve" width="25in" height="17.7222in" version="1.1" style="shape-rendering:geometricPrecision; text-rendering:geometricPrecision; image-rendering:optimizeQuality; fill-rule:evenodd; clip-rule:evenodd"
viewBox="0 0 25000 17722"
 xmlns:xlink="http://www.w3.org/1999/xlink">
 <defs>
  <style type="text/css">
   <![CDATA[
    .fil18 {fill:#3E4673;fill-rule:nonzero}
    .fil3 {fill:#597371;fill-rule:nonzero}
    .fil17 {fill:#6C7BB7;fill-rule:nonzero}
    .fil5 {fill:#789188;fill-rule:nonzero}
    .fil13 {fill:#7E93CA;fill-rule:nonzero}
    .fil6 {fill:#A6BAA3;fill-rule:nonzero}
    .fil8 {fill:#AD7895;fill-rule:nonzero}
    .fil2 {fill:#BBD1EC;fill-rule:nonzero}
    .fil12 {fill:#DBDDE3;fill-rule:nonzero}
    .fil4 {fill:#DD99A8;fill-rule:nonzero}
    .fil22 {fill:#DFAAB6;fill-rule:nonzero}
    .fil1 {fill:#E0DFE2;fill-rule:nonzero}
    .fil0 {fill:#EAE8E9;fill-rule:nonzero}
    .fil19 {fill:#F1EFF2;fill-rule:nonzero}
    .fil21 {fill:#F3F6F7;fill-rule:nonzero}
    .fil9 {fill:#FACBD2;fill-rule:nonzero}
    .fil11 {fill:#FEFEFE;fill-rule:nonzero}
    .fil20 {fill:url(#id0)}
    .fil16 {fill:url(#id1)}
    .fil14 {fill:url(#id2)}
    .fil7 {fill:url(#id3)}
    .fil10 {fill:url(#id4)}
    .fil15 {fill:url(#id5)}
   ]]>
  </style>
  <linearGradient id="id0" gradientUnits="userSpaceOnUse" x1="5405.71" y1="9891.48" x2="5405.71" y2="12967.2">
   <stop offset="0" style="stop-color:#BBD1EC"/>
   <stop offset="1" style="stop-color:#6E7AB6"/>
  </linearGradient>
  <linearGradient id="id1" gradientUnits="userSpaceOnUse" xlink:href="#id0" x1="6093.96" y1="9639.15" x2="6093.96" y2="13182.9">
  </linearGradient>
  <linearGradient id="id2" gradientUnits="userSpaceOnUse" x1="6444.74" y1="13314.3" x2="6444.74" y2="16109.7">
   <stop offset="0" style="stop-color:#FACBD2"/>
   <stop offset="1" style="stop-color:#DD99A8"/>
  </linearGradient>
  <linearGradient id="id3" gradientUnits="userSpaceOnUse" xlink:href="#id2" x1="10797.8" y1="15558.6" x2="10797.8" y2="17102.8">
  </linearGradient>
  <linearGradient id="id4" gradientUnits="userSpaceOnUse" xlink:href="#id2" x1="13617.6" y1="15296.8" x2="13617.6" y2="16038.2">
  </linearGradient>
  <linearGradient id="id5" gradientUnits="userSpaceOnUse" xlink:href="#id0" x1="7577.06" y1="9889.95" x2="8063.78" y2="12301.9">
  </linearGradient>
 </defs>
 <g id="Layer_x0020_1">
  <metadata id="CorelCorpID_0Corel-Layer"/>
  <path class="fil0" d="M18769 17722c-332,0 -684,-98 -989,-343 -102,-81 -241,-113 -401,-113 -283,0 -634,98 -968,196 -334,98 -651,196 -867,196 -50,0 -94,-5 -132,-17 -1086,-331 -54,-1240 1166,-1240 8,0 16,0 24,0 15,-8 45,-12 86,-12 135,0 394,45 694,150 164,58 340,86 517,86 137,0 273,-17 406,-49 128,-31 253,-40 356,-40 144,0 244,18 244,18 8,21 16,28 26,28 14,0 30,-17 47,-33 17,-17 35,-33 55,-33 15,0 31,11 47,40 869,47 916,171 922,367 14,408 -571,799 -1232,799z"/>
  <path class="fil1" d="M6595 16455c-2924,0 -3097,-1446 -3074,-1450 0,0 -738,136 -1564,136 -546,0 -1131,-59 -1566,-257 -693,-315 -158,-649 429,-649 45,0 90,2 135,6 6,1 11,1 17,1 451,0 835,-1633 835,-1633l13472 -1311c0,0 5597,1336 8204,2918 811,492 276,987 -1903,987 -676,0 -1511,-48 -2513,-158 -153,-17 -592,-193 -822,-227 -455,-68 -728,-292 -728,-292 -333,298 -862,317 -862,317 -988,-93 -1271,-317 -1271,-317 -544,317 -995,431 -1363,431 -954,0 -1351,-767 -1351,-767 -300,152 -613,197 -879,197 -401,0 -700,-103 -700,-103 -197,401 -675,480 -1019,480 -220,0 -384,-32 -384,-32 0,0 -155,1654 -2868,1720 -76,2 -150,3 -223,3z"/>
  <polygon class="fil2" points="16832,1609 18887,1609 18887,1348 16832,1348 "/>
  <polygon class="fil2" points="18627,4653 18887,4653 18887,1348 18627,1348 "/>
  <polygon class="fil2" points="7542,3802 9597,3802 9597,3541 7542,3541 "/>
  <polygon class="fil2" points="7542,5597 7802,5597 7802,3541 7542,3541 "/>
  <path class="fil3" d="M11021 13957c0,339 -479,615 -1070,615 -591,0 -1070,-275 -1070,-615 0,-340 479,-615 1070,-615 591,0 1070,275 1070,615z"/>
  <path class="fil3" d="M17602 13786c0,410 -520,742 -1162,742 -642,0 -1162,-332 -1162,-742 0,-410 520,-742 1162,-742 642,0 1162,332 1162,742z"/>
  <path class="fil3" d="M13148 13400c0,437 -615,791 -1374,791 -759,0 -1374,-354 -1374,-791 0,-437 615,-791 1374,-791 759,0 1374,354 1374,791z"/>
  <path class="fil3" d="M15470 13675c0,526 -615,952 -1374,952 -759,0 -1374,-426 -1374,-952 0,-526 615,-952 1374,-952 759,0 1374,426 1374,952z"/>
  <path class="fil4" d="M22523 2481c0,0 170,1773 -1118,3869l-176 -95c0,0 1139,-1734 1293,-3774z"/>
  <path class="fil4" d="M22300 3914c100,-91 566,-388 630,-250 42,91 -130,446 -637,425l7 -176z"/>
  <path class="fil4" d="M22190 4394c-62,-148 -413,-705 -551,-589 -91,77 -87,546 470,781l81 -193z"/>
  <path class="fil4" d="M21952 5019c158,-84 854,-312 891,-114 24,130 -313,530 -957,337l67 -223z"/>
  <path class="fil4" d="M23725 7052c0,0 -299,1628 -1983,3176l-133 -130c0,0 1459,-1261 2116,-3046z"/>
  <path class="fil4" d="M23246 8188c118,-41 625,-127 630,14 3,93 -273,335 -699,133l70 -148z"/>
  <path class="fil4" d="M23044 8564c1,-133 -87,-671 -231,-627 -94,29 -243,389 106,748l124 -121z"/>
  <path class="fil4" d="M22528 9227c-5,-166 -138,-834 -316,-773 -116,40 -285,496 166,929l150 -156z"/>
  <path class="fil3" d="M5011 14226c-48,469 -1164,740 -2494,605 -1330,-135 -2369,-624 -2322,-1093 48,-469 1164,-740 2494,-605 1330,135 2369,624 2322,1093z"/>
  <path class="fil4" d="M3360 3991c0,0 -87,1492 1059,3211l144 -85c0,0 -1010,-1419 -1204,-3125z"/>
  <path class="fil4" d="M3578 5139c-87,-73 -487,-308 -536,-190 -32,78 123,370 548,337l-11 -147z"/>
  <path class="fil4" d="M3701 5542c47,-126 324,-605 444,-511 79,61 90,456 -370,670l-74 -159z"/>
  <path class="fil4" d="M3883 6051c-135,-65 -727,-235 -751,-67 -16,110 280,435 814,252l-63 -185z"/>
  <path class="fil4" d="M6481 481c0,0 -558,1514 85,3648l176 -43c0,0 -597,-1783 -261,-3606z"/>
  <path class="fil4" d="M6364 1135c83,-95 482,-424 557,-303 49,80 -71,429 -544,466l-13 -164z"/>
  <path class="fil4" d="M6361 2653c80,-150 507,-691 717,-557 113,72 0,622 -660,786l-57 -228z"/>
  <path class="fil4" d="M6307 1876c-125,-122 -687,-513 -732,-315 -30,130 221,619 771,561l-39 -246z"/>
  <path class="fil4" d="M1326 8161c0,0 255,1763 2047,3513l153 -132c0,0 -1557,-1431 -2201,-3381z"/>
  <path class="fil4" d="M1676 9202c0,0 11,-628 254,-578 244,50 -152,344 -156,680l-98 -102z"/>
  <path class="fil4" d="M2073 9949c0,0 -117,-794 169,-782 190,8 -82,468 -30,889l-138 -107z"/>
  <path class="fil4" d="M2009 9782c-371,-159 -614,-111 -627,1 -20,157 454,198 678,138l-51 -139z"/>
  <path class="fil4" d="M2451 10436c-371,-159 -947,-192 -960,-80 -19,157 543,404 1011,219l-51 -139z"/>
  <path class="fil5" d="M5479 11089c0,0 -2565,-3769 -1469,-4661 1062,-864 2893,3405 2893,3405l-1424 1256z"/>
  <path class="fil5" d="M6967 11299c0,0 -2482,-6969 -803,-7930 1679,-960 3304,7787 3304,7787l-2500 143z"/>
  <path class="fil3" d="M6726 9443c-418,538 241,1856 241,1856l2722 554c0,0 -912,-2565 -1299,-4090 0,0 23,1946 -1664,1679z"/>
  <path class="fil6" d="M5496 13153c-1839,-340 -3472,-3468 -2732,-4305 595,-673 2207,1075 2875,2088 1186,1797 392,2315 -143,2217z"/>
  <path class="fil5" d="M5639 10936c-305,-461 -805,-1075 -1315,-1543 26,128 40,262 40,401 0,812 -472,1482 -1083,1584 548,854 1360,1617 2216,1775 535,99 1329,-420 143,-2217z"/>
  <path class="fil6" d="M4091 14635c-2848,228 -4340,-1599 -4057,-2182 390,-804 2262,809 4397,598 -275,615 414,1524 -340,1584z"/>
  <path class="fil5" d="M4431 13051c-305,30 -605,23 -896,-9 -531,1150 -2102,961 -2787,699 683,549 1819,1016 3343,894 754,-60 65,-970 340,-1584z"/>
  <path class="fil5" d="M4012 14641c26,-2 53,-3 79,-5 754,-60 65,-970 340,-1584 -966,96 -1879,-182 -2625,-441 437,745 1267,1554 2206,2031z"/>
  <path class="fil5" d="M596 12813c0,0 728,1067 2363,1252l159 -214c0,0 -1566,-105 -2522,-1038z"/>
  <path class="fil5" d="M5298 12844c-1328,-686 -2850,-2391 -3425,-1785 -854,900 1587,3821 3837,3907l-412 -2122z"/>
  <path class="fil5" d="M1158 13580c0,56 -46,102 -102,102 -56,0 -102,-46 -102,-102 0,-56 46,-102 102,-102 56,0 102,46 102,102z"/>
  <path class="fil5" d="M1942 13234c0,75 -61,135 -135,135 -75,0 -135,-61 -135,-135 0,-75 61,-135 135,-135 75,0 135,61 135,135z"/>
  <path class="fil3" d="M3218 11996c0,75 -61,135 -135,135 -75,0 -135,-61 -135,-135 0,-75 61,-135 135,-135 75,0 135,61 135,135z"/>
  <path class="fil5" d="M4121 10092c0,88 -72,160 -160,160 -88,0 -160,-72 -160,-160 0,-88 72,-160 160,-160 88,0 160,72 160,160z"/>
  <path class="fil5" d="M3740 9770c0,59 -48,106 -106,106 -59,0 -106,-48 -106,-106 0,-59 48,-106 106,-106 59,0 106,48 106,106z"/>
  <path class="fil5" d="M1484 13099c0,52 -42,94 -94,94 -52,0 -94,-42 -94,-94 0,-52 42,-94 94,-94 52,0 94,42 94,94z"/>
  <path class="fil3" d="M2844 11687c0,52 -42,94 -94,94 -52,0 -94,-42 -94,-94 0,-52 42,-94 94,-94 52,0 94,42 94,94z"/>
  <path class="fil5" d="M3245 10362c0,44 -35,79 -79,79 -44,0 -79,-35 -79,-79 0,-44 35,-79 79,-79 44,0 79,35 79,79z"/>
  <path class="fil3" d="M5298 12844c-602,-311 -1243,-831 -1819,-1250 121,510 -26,991 -387,1160 -423,197 -985,-107 -1283,-682 453,1202 2052,2798 3901,2894l-412 -2122z"/>
  <path class="fil3" d="M2160 11424c0,0 345,1277 1869,1897l279 -217c0,0 -1480,-524 -2148,-1681z"/>
  <path class="fil5" d="M3069 9130c0,0 12,1323 1332,2306l325 -139c0,0 -1300,-879 -1657,-2167z"/>
  <path class="fil4" d="M2981 8258c0,153 -124,277 -277,277 -153,0 -277,-124 -277,-277 0,-153 124,-277 277,-277 153,0 277,124 277,277z"/>
  <path class="fil4" d="M5222 5597c0,143 -116,259 -258,259 -143,0 -258,-116 -258,-259 0,-143 116,-258 258,-258 143,0 258,116 258,258z"/>
  <path class="fil4" d="M25000 11396c0,143 -116,258 -259,258 -143,0 -258,-116 -258,-258 0,-143 116,-258 258,-258 143,0 259,116 259,258z"/>
  <path class="fil4" d="M19801 2908c0,134 -108,242 -242,242 -134,0 -242,-108 -242,-242 0,-134 109,-242 242,-242 134,0 242,108 242,242z"/>
  <path class="fil4" d="M21136 4188c0,76 -62,138 -138,138 -76,0 -138,-62 -138,-138 0,-76 62,-138 138,-138 76,0 138,62 138,138z"/>
  <path class="fil4" d="M24879 9953c0,76 -62,138 -138,138 -76,0 -138,-62 -138,-138 0,-76 62,-138 138,-138 76,0 138,62 138,138z"/>
  <path class="fil4" d="M3166 7428c0,102 -83,185 -185,185 -102,0 -185,-83 -185,-185 0,-102 83,-185 185,-185 102,0 185,83 185,185z"/>
  <path class="fil4" d="M7555 1621c0,78 -63,141 -141,141 -78,0 -141,-63 -141,-141 0,-78 63,-141 141,-141 78,0 141,63 141,141z"/>
  <path class="fil4" d="M7910 2816c0,102 -83,185 -185,185 -102,0 -185,-83 -185,-185 0,-102 83,-185 185,-185 102,0 185,83 185,185z"/>
  <path class="fil6" d="M4754 7517c82,359 -10,686 -205,730 -195,44 -419,-211 -500,-570 -82,-359 10,-686 205,-730 195,-44 419,211 500,570z"/>
  <path class="fil6" d="M6520 4584c-15,314 -165,562 -335,554 -170,-8 -295,-269 -280,-584 15,-314 165,-562 335,-554 170,8 295,269 280,584z"/>
  <path class="fil6" d="M5149 8771c47,103 19,218 -63,255 -82,37 -187,-16 -234,-120 -47,-103 -19,-218 63,-255 82,-37 187,16 234,120z"/>
  <path class="fil6" d="M6890 5857c29,151 -29,289 -128,308 -99,19 -203,-89 -232,-240 -29,-151 29,-289 128,-308 99,-19 203,89 232,240z"/>
  <path class="fil6" d="M7787 5992c77,250 9,492 -151,541 -160,49 -352,-113 -429,-363 -77,-250 -9,-492 151,-541 160,-49 352,113 429,363z"/>
  <path class="fil6" d="M5179 8252c23,75 -3,150 -60,167 -56,18 -121,-28 -145,-103 -23,-75 3,-150 60,-167 56,-18 121,28 145,103z"/>
  <path class="fil7" d="M12316 16331c0,426 -680,772 -1518,772 -838,0 -1518,-346 -1518,-772 0,-426 680,-772 1518,-772 838,0 1518,346 1518,772z"/>
  <path class="fil8" d="M10798 16922c-778,0 -1419,-298 -1507,-682 -7,30 -11,60 -11,91 0,426 680,772 1518,772 838,0 1518,-346 1518,-772 0,-31 -4,-61 -11,-91 -88,384 -729,682 -1507,682z"/>
  <path class="fil9" d="M9080 16671c0,156 -248,282 -554,282 -306,0 -554,-126 -554,-282 0,-155 248,-282 554,-282 306,0 554,126 554,282z"/>
  <path class="fil9" d="M3521 15502c0,178 -283,322 -632,322 -349,0 -632,-144 -632,-322 0,-177 283,-322 632,-322 349,0 632,144 632,322z"/>
  <path class="fil5" d="M11592 14601c0,91 -128,164 -285,164 -158,0 -285,-74 -285,-164 0,-91 128,-164 285,-164 158,0 285,74 285,164z"/>
  <path class="fil5" d="M12824 14819c0,112 -176,203 -392,203 -217,0 -392,-91 -392,-203 0,-112 176,-203 392,-203 217,0 392,91 392,203z"/>
  <path class="fil5" d="M10832 14995c0,61 -86,110 -192,110 -106,0 -192,-49 -192,-110 0,-61 86,-110 192,-110 106,0 192,49 192,110z"/>
  <path class="fil10" d="M14346 15668c0,205 -326,371 -729,371 -403,0 -729,-166 -729,-371 0,-205 326,-371 729,-371 402,0 729,166 729,371z"/>
  <path class="fil8" d="M13618 15933c-367,0 -670,-138 -721,-318 -5,17 -8,35 -8,53 0,205 326,371 729,371 402,0 729,-166 729,-371 0,-18 -3,-36 -8,-53 -50,180 -353,318 -721,318z"/>
  <path class="fil9" d="M21389 15829c0,199 -318,361 -710,361 -392,0 -710,-162 -710,-361 0,-200 318,-361 710,-361 392,0 710,162 710,361z"/>
  <path class="fil9" d="M22823 15778c0,126 -201,228 -448,228 -248,0 -448,-102 -448,-228 0,-126 201,-228 448,-228 248,0 448,102 448,228z"/>
  <path class="fil3" d="M19780 5275c0,0 916,-971 1460,-522 639,528 -2229,2982 -2229,2982l306 -1883 464 -578z"/>
  <path class="fil5" d="M17639 5388c313,-1225 1591,-2136 2598,-1836 1006,300 -701,1672 -912,3654 -257,2414 -1994,-614 -1686,-1818z"/>
  <path class="fil3" d="M23981 13897c0,472 -1497,854 -3344,854 -1847,0 -3344,-382 -3344,-854 0,-471 1497,-854 3344,-854 1847,0 3344,382 3344,854z"/>
  <path class="fil6" d="M17519 13847c0,0 1988,1183 5711,54 3723,-1129 477,-2436 -3702,-1860 -1721,237 -2412,126 -2412,126l403 1680z"/>
  <path class="fil5" d="M23435 13453c-4226,890 -4719,-1080 -4719,-1080l-731 -354c-1131,107 -869,147 -869,147l-232 1449c0,0 2652,1608 6426,283 1317,-462 1694,-829 1515,-1185 -120,276 -548,564 -1390,741z"/>
  <path class="fil6" d="M17996 12323c5184,489 6250,-1638 6015,-2069 -316,-579 -4520,-975 -6015,617l0 1452z"/>
  <path class="fil5" d="M18285 10596l-290 -205c-47,42 43,435 0,480l-32 1486c4084,385 5644,-887 5994,-1640 -522,638 -4650,1500 -5672,-121z"/>
  <path class="fil6" d="M18060 8088c425,-1174 3596,-3192 4555,-2273 593,568 -1375,4471 -4837,4902 -48,6 -55,-185 -55,-185 0,0 127,-1864 337,-2443z"/>
  <path class="fil5" d="M17778 9871c-36,379 -55,661 -55,661 0,0 7,191 55,185 2954,-368 4821,-3264 4935,-4458 -529,1283 -2388,3395 -4936,3612z"/>
  <path class="fil5" d="M19501 12232c0,0 1636,1259 4209,580 0,0 -2348,383 -3597,-739l-612 159z"/>
  <path class="fil5" d="M22761 12442c13,95 -65,185 -174,200 -109,15 -209,-50 -222,-145 -13,-95 65,-185 174,-200 109,-15 208,50 222,145z"/>
  <path class="fil5" d="M20249 12942c16,113 -77,219 -207,237 -130,18 -248,-59 -263,-172 -16,-113 77,-219 207,-237 130,-18 248,59 263,172z"/>
  <path class="fil5" d="M21534 13313c10,70 -48,136 -128,147 -80,11 -153,-37 -163,-107 -10,-70 48,-136 128,-147 80,-11 153,37 163,107z"/>
  <path class="fil5" d="M18412 8544c0,0 772,1020 2586,-76l-1339 1446 -2025 130 778 -1500z"/>
  <path class="fil5" d="M20999 6920c0,0 -1358,1149 -1781,2298l-396 -175c0,0 557,-1324 2176,-2123z"/>
  <path class="fil5" d="M22970 10468c0,0 -2642,229 -4113,1157l-352 -485c0,0 1837,-833 4465,-673z"/>
  <path class="fil5" d="M19546 7479c0,116 -94,210 -210,210 -116,0 -210,-94 -210,-210 0,-116 94,-210 210,-210 116,0 210,94 210,210z"/>
  <path class="fil5" d="M20031 7233c0,58 -47,105 -105,105 -58,0 -105,-47 -105,-105 0,-58 47,-105 105,-105 58,0 105,47 105,105z"/>
  <path class="fil5" d="M20280 8430c0,103 -84,187 -187,187 -103,0 -187,-84 -187,-187 0,-103 84,-187 187,-187 103,0 187,84 187,187z"/>
  <path class="fil5" d="M20773 10165c0,99 -90,179 -201,179 -111,0 -201,-80 -201,-179 0,-99 90,-179 201,-179 111,0 201,80 201,179z"/>
  <path class="fil5" d="M21222 11160c0,100 -92,182 -204,182 -113,0 -205,-81 -205,-182 0,-100 92,-182 205,-182 113,0 204,81 204,182z"/>
  <path class="fil5" d="M21927 10946c0,62 -56,112 -126,112 -69,0 -126,-50 -126,-112 0,-62 56,-112 126,-112 70,0 126,50 126,112z"/>
  <path class="fil5" d="M20710 8346c0,67 -55,122 -122,122 -67,0 -122,-55 -122,-122 0,-67 55,-122 122,-122 67,0 122,55 122,122z"/>
  <path class="fil5" d="M22048 6587c0,67 -55,122 -122,122 -67,0 -122,-55 -122,-122 0,-67 55,-122 122,-122 67,0 122,55 122,122z"/>
  <path class="fil6" d="M19825 5174c-60,125 -182,192 -272,149 -90,-43 -114,-180 -54,-305 60,-125 182,-192 272,-149 90,43 114,180 54,305z"/>
  <path class="fil6" d="M19035 4445c-77,113 -206,159 -288,103 -82,-56 -85,-193 -8,-306 77,-113 206,-159 288,-103 82,56 85,193 8,306z"/>
  <path class="fil5" d="M20675 5416c-89,104 -222,137 -297,72 -75,-64 -65,-201 24,-305 89,-104 222,-137 297,-72 75,64 64,201 -24,305z"/>
  <path class="fil6" d="M19945 4275c-143,168 -341,234 -443,147 -101,-86 -67,-293 75,-460 143,-168 341,-234 443,-147 101,86 68,293 -75,460z"/>
  <polygon class="fil11" points="8592,13473 17704,13473 17704,201 8592,201 "/>
  <polygon class="fil12" points="8592,674 17704,674 17704,295 8592,295 "/>
  <polygon class="fil12" points="8793,7178 8582,927 8582,399 9110,399 "/>
  <polygon class="fil12" points="17592,7178 17804,927 17804,399 17275,399 "/>
  <polygon class="fil13" points="8390,13675 8793,13675 8793,0 8390,0 "/>
  <polygon class="fil13" points="17602,13675 18005,13675 18005,0 17602,0 "/>
  <polygon class="fil13" points="8390,403 18005,403 18005,0 8390,0 "/>
  <polygon class="fil13" points="8390,13675 18005,13675 18005,13272 8390,13272 "/>
  <polygon class="fil2" points="9885,2511 9797,2347 11706,1326 11794,1490 "/>
  <polygon class="fil2" points="9901,4542 9780,4400 10971,3379 11092,3521 "/>
  <polygon class="fil2" points="9875,6599 9806,6426 12356,5405 12425,5578 "/>
  <polygon class="fil2" points="10971,3521 9780,2500 9901,2359 11092,3379 "/>
  <polygon class="fil2" points="12356,5578 9806,4558 9875,4385 12425,5405 "/>
  <path class="fil2" d="M12058 1408c0,170 -138,307 -307,307 -170,0 -307,-138 -307,-307 0,-170 138,-307 307,-307 170,0 307,138 307,307z"/>
  <path class="fil2" d="M10148 4471c0,170 -138,307 -307,307 -170,0 -307,-138 -307,-307 0,-170 138,-307 307,-307 170,0 307,138 307,307z"/>
  <path class="fil2" d="M10148 6513c0,170 -138,307 -307,307 -170,0 -307,-138 -307,-307 0,-170 138,-307 307,-307 170,0 307,138 307,307z"/>
  <path class="fil2" d="M11339 3450c0,170 -138,307 -307,307 -170,0 -307,-138 -307,-307 0,-170 138,-307 307,-307 170,0 307,138 307,307z"/>
  <path class="fil2" d="M12698 5492c0,170 -138,307 -307,307 -170,0 -307,-138 -307,-307 0,-170 138,-307 307,-307 170,0 307,138 307,307z"/>
  <path class="fil2" d="M10148 2429c0,170 -138,307 -307,307 -170,0 -307,-138 -307,-307 0,-170 138,-307 307,-307 170,0 307,138 307,307z"/>
  <path class="fil9" d="M16495 2733c0,773 -626,1399 -1399,1399 -772,0 -1399,-626 -1399,-1399 0,-773 626,-1399 1399,-1399l0 1399 1399 0z"/>
  <path class="fil2" d="M15291 2539l1191 0c-86,-617 -574,-1105 -1191,-1191l0 1191z"/>
  <path class="fil2" d="M15383 6103c0,158 -128,287 -287,287 -158,0 -287,-128 -287,-287 0,-158 128,-287 287,-287 158,0 287,128 287,287z"/>
  <path class="fil9" d="M15383 5128c0,158 -128,287 -287,287 -158,0 -287,-128 -287,-287 0,-158 128,-287 287,-287 158,0 287,128 287,287z"/>
  <polygon class="fil9" points="9366,9815 9673,9815 9673,7993 9366,7993 "/>
  <polygon class="fil9" points="9366,10445 12083,10445 12083,10138 9366,10138 "/>
  <polygon class="fil2" points="12083,10774 12083,12514 9366,12514 9366,11625 9841,11032 10400,12213 10851,11412 11289,11901 "/>
  <polygon class="fil9" points="11776,9815 12083,9815 12083,7993 11776,7993 "/>
  <polygon class="fil9" points="9968,9815 10275,9815 10275,8429 9968,8429 "/>
  <polygon class="fil9" points="11173,9815 11480,9815 11480,8429 11173,8429 "/>
  <polygon class="fil9" points="10571,9815 10878,9815 10878,8904 10571,8904 "/>
  <path class="fil14" d="M9532 14343c0,985 -1352,1767 -2966,1767 -1614,0 -3209,-696 -3062,-2003 81,-721 789,-421 3062,-632 1732,-161 2966,140 2966,868z"/>
  <path class="fil8" d="M6567 15847c-1402,0 -2790,-517 -3070,-1497 64,1150 1558,1760 3069,1760 1595,0 2934,-764 2964,-1734 -259,843 -1506,1471 -2963,1471z"/>
  <path class="fil8" d="M7611 14935c-276,-174 -119,-285 -421,-374 -171,-50 -396,90 -396,90l-202 26 -40 -60c0,0 -199,47 -442,122l-80 10c0,0 3,5 7,13 -348,112 -750,276 -787,445 -51,233 0,706 575,498 386,-139 384,-164 681,-286 102,-42 180,-82 241,-118 499,270 1004,867 1124,344 56,-245 31,-525 -260,-709z"/>
  <path class="fil15" d="M6991 9899c0,0 948,280 1039,980 91,700 620,1414 620,1414l-906 -173 -753 -2220z"/>
  <path class="fil2" d="M7146 10120l-35 -104c0,0 378,112 680,371 -309,-342 -800,-487 -800,-487l75 221 81 0z"/>
  <path class="fil16" d="M5498 9967c0,0 826,-328 1506,-68 863,329 757,1485 691,2264 -66,780 -411,1020 -411,1020l-2478 -98c0,0 -484,-1814 693,-3119z"/>
  <path class="fil17" d="M7417 12365c0,0 -163,-124 -486,-67 -471,-33 -1648,-177 -1611,-504 77,-666 420,-1129 725,-1371l-1150 86c-410,613 -569,1481 -147,1853 541,477 1737,423 2021,403 70,9 260,45 382,176l267 -576z"/>
  <path class="fil13" d="M4716 12501c0,0 1449,1410 3582,279l-39 1301 -1977 598c0,0 -1854,-1457 -1854,-1476 0,-20 287,-701 287,-701z"/>
  <path class="fil2" d="M6354 14340c0,0 1150,-618 1554,-1254 470,-741 1352,-566 1553,-212 201,354 138,1510 -2490,1942l-618 -475z"/>
  <path class="fil13" d="M7144 14501c-197,-109 -369,-214 -522,-317 -160,98 -268,156 -268,156l510 393c126,-184 279,-232 279,-232z"/>
  <path class="fil13" d="M9456 13527c119,-277 80,-521 5,-653 -201,-354 -1083,-529 -1553,212 -96,151 -233,300 -388,441l1936 0z"/>
  <path class="fil13" d="M9479 12908c83,461 -249,1375 -2479,1759l0 144c2522,-422 2656,-1516 2479,-1903z"/>
  <path class="fil18" d="M5946 14781c0,0 -730,-10 -796,291 -51,233 0,706 575,498 386,-139 384,-164 681,-286 315,-130 413,-247 413,-247l-873 -256z"/>
  <path class="fil17" d="M6522 15047c587,40 1326,1110 1475,462 56,-245 31,-525 -260,-709 -276,-175 -119,-285 -421,-374 -171,-50 -396,90 -396,90l-763 98c0,0 225,424 365,433z"/>
  <path class="fil18" d="M7989 15108c-2,74 -18,145 -46,203 -287,600 -614,-308 -1421,-265 587,40 1326,1110 1475,462 30,-130 36,-270 -7,-401z"/>
  <path class="fil2" d="M6514 15037c0,0 -1396,-171 -2385,-943 -989,-772 -278,-2220 468,-1685 715,514 684,1203 2322,2107 0,0 -299,91 -405,520z"/>
  <path class="fil13" d="M4196 13977c-529,-413 -571,-1020 -382,-1413 -260,379 -270,1073 315,1529 989,772 2393,954 2393,954 11,-44 16,-94 31,-131 -203,-29 -1451,-232 -2356,-939z"/>
  <path class="fil4" d="M6669 12858c0,0 257,16 410,179l267 -576c0,0 -198,-153 -595,-42l-345 215 263 224z"/>
  <polygon class="fil12" points="7086,13085 5645,13085 5733,13337 7086,13337 "/>
  <polygon class="fil12" points="9929,11420 7856,11420 6919,13337 8992,13337 "/>
  <polygon class="fil19" points="10130,11420 8058,11420 7121,13337 9194,13337 "/>
  <polygon class="fil12" points="10130,11420 8058,11420 7890,11514 9929,11544 9172,13211 7112,13248 6947,13337 9194,13337 "/>
  <path class="fil20" d="M6817 12402c0,0 -216,176 -148,456 0,0 -1469,109 -2072,-449 -603,-558 -81,-2149 901,-2442 252,-75 448,-16 547,456 -312,234 -915,671 -937,1421 -10,337 1265,520 1709,559z"/>
  <path class="fil2" d="M7203 10048c45,17 87,33 128,52 -89,-83 -197,-152 -327,-201 -680,-259 -1506,68 -1506,68 -362,108 -661,392 -864,736 650,-754 1717,-980 2569,-655z"/>
  <path class="fil8" d="M6455 9343c0,0 -34,296 -146,600 0,0 154,176 342,69 0,0 107,-262 153,-575 0,0 -170,-134 -349,-95z"/>
  <path class="fil18" d="M6444 9242c20,78 -27,157 -105,177 -78,20 -157,-27 -177,-105 -20,-78 27,-157 105,-177 78,-20 157,27 177,105z"/>
  <path class="fil18" d="M6427 9061c20,78 -27,157 -105,177 -78,20 -157,-27 -177,-105 -20,-78 27,-157 105,-177 78,-20 157,27 177,105z"/>
  <path class="fil18" d="M6217 9109c25,99 -35,199 -133,224 -99,25 -199,-35 -224,-133 -25,-99 35,-199 133,-224 99,-25 199,35 224,133z"/>
  <path class="fil18" d="M6088 8797c34,134 -47,270 -181,303 -134,34 -270,-47 -303,-181 -34,-134 47,-270 181,-303 134,-34 270,47 303,181z"/>
  <path class="fil18" d="M7724 7812c41,161 -57,325 -218,366 -161,41 -325,-57 -366,-218 -41,-161 57,-325 218,-366 161,-41 325,57 366,218z"/>
  <path class="fil18" d="M7779 8239c34,134 -47,270 -181,303 -134,34 -270,-47 -303,-181 -34,-134 47,-270 181,-303 134,-34 270,47 303,181z"/>
  <path class="fil18" d="M7681 8637c28,110 -39,222 -149,250 -110,28 -222,-39 -250,-149 -28,-110 39,-222 149,-250 110,-28 222,39 250,149z"/>
  <path class="fil18" d="M5995 8323c39,155 -55,313 -210,353 -155,39 -313,-55 -353,-210 -39,-155 55,-313 210,-353 155,-39 313,55 353,210z"/>
  <path class="fil18" d="M6277 7915c54,215 -75,433 -290,487 -215,54 -433,-75 -487,-290 -54,-215 75,-433 290,-487 215,-54 433,75 487,290z"/>
  <path class="fil18" d="M6566 8329c54,215 -75,433 -290,487 -215,54 -433,-75 -487,-290 -54,-215 75,-433 290,-487 215,-54 433,75 487,290z"/>
  <path class="fil18" d="M6947 7860c54,215 -75,433 -290,487 -215,54 -433,-75 -487,-290 -54,-215 75,-433 290,-487 215,-54 433,75 487,290z"/>
  <path class="fil18" d="M7429 7756c54,215 -75,433 -290,487 -215,54 -433,-75 -487,-290 -54,-215 75,-433 290,-487 215,-54 433,75 487,290z"/>
  <path class="fil18" d="M6569 7543c51,200 -70,404 -271,455 -200,51 -404,-70 -455,-271 -51,-200 70,-404 271,-455 200,-51 404,70 455,271z"/>
  <path class="fil18" d="M7056 7388c47,184 -65,371 -249,418 -184,47 -371,-65 -418,-249 -47,-184 65,-371 249,-418 184,-47 371,65 418,249z"/>
  <path class="fil18" d="M7474 7451c47,184 -65,371 -249,418 -184,47 -371,-65 -418,-249 -47,-184 65,-371 249,-418 184,-47 371,65 418,249z"/>
  <path class="fil4" d="M6256 9077c0,0 47,563 700,450 478,-83 563,-788 347,-1474 -20,-62 -95,-123 -147,-85 -69,50 -230,130 -327,39 -46,-43 -108,-63 -171,-59 -99,7 -113,156 -307,159 -40,1 -78,22 -99,56 -71,116 -102,293 -43,561 0,0 -163,-125 -226,30 -64,155 21,447 275,323z"/>
  <path class="fil18" d="M7317 8474c8,75 -34,141 -93,147 -59,6 -114,-49 -122,-124 -8,-75 34,-141 93,-147 59,-6 114,49 122,124z"/>
  <path class="fil18" d="M6711 8537c8,75 -34,141 -93,147 -59,6 -114,-49 -122,-124 -8,-75 34,-141 93,-147 59,-6 114,49 122,124z"/>
  <path class="fil8" d="M6494 8901c0,0 243,287 782,107 0,0 -133,383 -507,301 -336,-74 -275,-409 -275,-409z"/>
  <path class="fil21" d="M6494 8901c0,0 -6,32 -4,79 41,41 238,212 618,140 14,-16 23,-37 23,-59l0 -13c-438,88 -636,-147 -636,-147z"/>
  <path class="fil8" d="M7096 8749c-14,-26 -45,-37 -74,-30 -16,4 -34,7 -52,7 -19,0 -36,-2 -52,-7 -29,-8 -60,3 -74,30 -4,8 -6,17 -6,26 0,46 59,84 133,84 73,0 133,-37 133,-84 0,-9 -2,-18 -6,-26z"/>
  <path class="fil18" d="M6451 8332c42,-21 114,-50 208,-58 27,-2 45,-29 37,-54l-5 -15c-6,-18 -23,-30 -42,-30 -52,2 -157,14 -244,81 -15,12 -21,32 -14,49l1 4c9,23 36,34 58,23z"/>
  <path class="fil18" d="M7266 8279c-40,-11 -108,-24 -199,-18 -23,2 -44,-16 -45,-40l-1 -18c-1,-23 15,-42 38,-44 57,-5 163,-6 241,43 16,10 23,29 19,47 -6,23 -30,36 -53,30z"/>
  <path class="fil22" d="M17305 7294c0,0 -538,815 -1814,917l506 628c0,0 1225,-239 1567,-957 346,-728 -258,-588 -258,-588z"/>
  <path class="fil9" d="M18867 11561c0,0 -208,-1027 72,-1797 279,-770 424,-1320 334,-1688 -90,-368 -948,-928 -1431,-915 -483,13 -1179,984 -985,2303 194,1319 2011,2097 2011,2097z"/>
  <path class="fil22" d="M16934 8226c-121,395 -147,772 -78,1238 194,1319 2011,2097 2011,2097 0,0 -208,-1027 72,-1797 278,-767 425,-1316 337,-1684 0,0 -23,-89 -40,-70 -6,7 -2,115 -11,125 -206,226 -299,229 -750,170 -336,515 -770,650 -976,668 -878,76 -565,-746 -565,-746z"/>
  <path class="fil9" d="M16244 14819c4,485 47,978 149,1548 0,0 175,183 520,-23 0,0 -13,-774 46,-1482l-715 -42z"/>
  <path class="fil9" d="M18272 14711c208,520 408,1220 835,1890 0,0 153,83 515,-125 0,0 -337,-662 -534,-1545l-816 -220z"/>
  <path class="fil8" d="M17147 15267c0,0 56,-2116 442,-2872l-1292 -1239c0,0 -547,1946 -272,4113 0,0 644,214 1122,-2z"/>
  <path class="fil8" d="M19421 15541c-256,-892 -575,-2241 -348,-3530l-1684 -398c0,0 239,2596 1079,4153 456,77 953,-225 953,-225z"/>
  <path class="fil9" d="M14972 9876c0,0 -259,487 83,769 342,283 808,36 808,36l-891 -805z"/>
  <path class="fil4" d="M19275 13326l0 0c-395,347 -996,309 -1343,-86l-142 -162 62 -1370 1367 113 143 162c347,395 309,996 -86,1343z"/>
  <polygon class="fil22" points="13061,7703 12390,5499 14491,6446 "/>
  <polygon class="fil9" points="13361,7083 12390,5499 14491,6446 "/>
  <polygon class="fil13" points="13072,5807 12390,5499 12608,6215 "/>
  <polygon class="fil2" points="18333,11774 17856,12193 13361,7083 13837,6664 "/>
  <polygon class="fil13" points="18987,11558 18333,11774 13837,6664 14490,6446 "/>
  <polygon class="fil13" points="17558,12815 17856,12193 13361,7083 13061,7703 "/>
  <polygon class="fil11" points="18087,12456 18564,12037 18308,11746 17831,12165 "/>
  <polygon class="fil2" points="18564,12037 19218,11820 18962,11529 18308,11746 "/>
  <polygon class="fil2" points="17789,13078 18087,12456 17831,12165 17533,12787 "/>
  <path class="fil9" d="M15412 10375c0,0 -43,523 334,713 0,0 2563,-258 3495,-2653 0,0 234,-684 -470,-638 0,0 -960,2126 -3359,2578z"/>
  <path class="fil9" d="M13945 9104c-164,-289 21,-590 333,-550 312,40 397,241 293,307 -268,169 -123,417 -123,417l172 196c0,0 -439,45 -675,-370z"/>
  <path class="fil18" d="M18027 7223c0,0 -727,467 -978,61 -281,-455 512,-645 478,-1293 -24,-454 -308,-1279 816,-931 1145,-179 1261,734 973,1416 -206,488 687,1000 136,1430 -586,458 -1226,-32 -1168,-558 59,-526 -257,-124 -257,-124z"/>
  <path class="fil4" d="M18344 6821c0,0 -50,286 -59,526 0,0 -125,210 -265,9 0,0 7,-273 70,-582 0,0 146,-27 254,47z"/>
  <path class="fil9" d="M18739 6545c0,0 -111,576 -678,416 -499,-141 -450,-772 -223,-1377 20,-55 80,-85 137,-69 92,26 319,34 414,-130 0,0 610,98 393,882 0,0 149,-118 229,30 66,121 -53,349 -272,248z"/>
  <path class="fil18" d="M18361 6058c-7,57 18,107 57,112 39,5 77,-37 84,-93 8,-57 -18,-107 -57,-112 -39,-5 -77,37 -84,93z"/>
  <path class="fil18" d="M17805 5974c-8,57 18,107 57,112 39,5 77,-37 84,-93 8,-57 -18,-107 -57,-112 -39,-5 -77,37 -84,93z"/>
  <path class="fil8" d="M18602 6474c0,0 -398,121 -775,-26 0,0 23,337 392,357 284,16 383,-331 383,-331z"/>
  <path class="fil21" d="M18033 6577c235,41 449,2 535,-18 23,-48 34,-85 34,-85 0,0 -294,89 -616,21l0 19c0,9 2,18 4,26 6,19 23,33 43,36z"/>
  <path class="fil4" d="M18035 6286c-4,39 44,76 106,81 62,6 115,-21 119,-60 4,-39 -44,-76 -106,-81 -62,-6 -116,21 -119,60z"/>
  <path class="fil9" d="M19014 12531c7,132 -94,244 -226,251 -132,7 -244,-94 -251,-226 -7,-132 94,-244 226,-251 132,-7 244,94 251,226z"/>
  <path class="fil9" d="M19254 12178c4,65 -46,120 -111,124 -65,3 -120,-46 -124,-111 -3,-65 46,-120 111,-124 65,-3 120,46 124,111z"/>
  <path class="fil4" d="M15314 10354c0,0 -133,644 425,805 0,0 247,-13 387,-140 0,0 -358,-164 -383,-718 0,0 -239,-68 -429,53z"/>
  <path class="fil18" d="M16906 16305c169,-62 243,326 113,431 -78,63 -455,69 -762,329 -235,199 -590,147 -715,116 -208,-52 -236,-353 62,-465 587,-221 392,-530 643,-605 164,-49 103,397 659,195z"/>
  <path class="fil18" d="M18982 16438c-194,58 -13,276 -531,583 -90,53 -166,327 78,370 699,123 825,-262 1156,-453 177,-102 34,-518 -62,-460 -411,248 -487,-85 -640,-39z"/>
  <path class="fil18" d="M17895 5685c36,-3 99,-5 165,3 17,2 33,-11 34,-28l2 -24c1,-16 -10,-30 -26,-32 -38,-6 -111,-11 -187,11 -13,4 -22,17 -21,31l1 11c1,17 16,30 33,29z"/>
  <path class="fil18" d="M18655 5791c-34,-12 -94,-32 -160,-42 -17,-3 -28,-19 -25,-36l5 -23c3,-16 18,-26 34,-24 38,5 110,19 177,61 12,7 17,22 12,35l-3 10c-5,16 -23,25 -39,19z"/>
  <path class="fil4" d="M17930 5788c-106,6 -187,96 -182,202 6,106 96,187 202,182 106,-6 188,-96 182,-202 -5,-106 -96,-187 -202,-182zm23 424c-128,7 -238,-92 -245,-220 -7,-128 92,-238 220,-245 128,-7 238,92 245,220 7,128 -92,238 -220,245z"/>
  <path class="fil4" d="M18496 5875c-106,6 -187,96 -182,202 6,106 96,187 202,182 106,-6 187,-96 182,-202 -5,-106 -96,-187 -202,-182zm22 424c-128,7 -238,-92 -245,-220 -7,-128 92,-238 220,-245 128,-7 238,92 245,220 7,128 -92,238 -220,245z"/>
  <polygon class="fil4" points="18713,6104 18707,6148 18803,6184 18808,6161 18791,6131 "/>
  <path class="fil4" d="M18280 6036c-43,-31 -125,-20 -126,-20l-5 -37c4,-1 97,-13 152,27l-22 30z"/>
  <path class="fil11" d="M17931 5755c-106,6 -187,96 -182,202 6,106 96,187 202,182 106,-6 187,-96 182,-202 -6,-106 -96,-187 -202,-182zm22 424c-128,7 -238,-92 -245,-220 -7,-128 92,-238 220,-245 128,-7 238,92 245,220 7,128 -92,238 -220,245z"/>
  <path class="fil11" d="M18497 5842c-106,6 -187,96 -182,202 6,106 96,187 202,182 106,-6 188,-96 182,-202 -6,-106 -96,-187 -202,-182zm22 424c-128,7 -238,-92 -245,-220 -7,-128 92,-238 220,-245 128,-7 238,92 245,220 7,128 -92,238 -220,245z"/>
  <path class="fil11" d="M18281 6003c-43,-31 -125,-20 -126,-20l-5 -37c4,-1 97,-13 153,27l-22 30z"/>
  <path class="fil11" d="M18852 6182c-3,0 -6,0 -10,-2l-139 -73c-9,-5 -12,-16 -8,-25 5,-9 16,-13 25,-8l138 73c9,5 13,16 8,25 -3,6 -9,10 -16,10z"/>
 </g>
</svg>
